<svg xmlns="http://www.w3.org/2000/svg" width="48" height="48">
  <path style="stroke:none;fill-rule:nonzero;fill:#fff;fill-opacity:1" d="M24 4c-1.578 0-3.098.2-4.55.535a1.51 1.51 0 0 0-1.15 1.3l-.32 2.903a2.986 2.986 0 0 1-1.48 2.27 2.996 2.996 0 0 1-2.707.148L11.125 9.98a1.51 1.51 0 0 0-1.7.348A19.953 19.953 0 0 0 4.86 18.2c-.183.61.036 1.27.547 1.645l2.367 1.734a3.003 3.003 0 0 1 0 4.84l-2.367 1.734a1.502 1.502 0 0 0-.547 1.645 19.926 19.926 0 0 0 4.567 7.871 1.499 1.499 0 0 0 1.699.348l2.668-1.176a3 3 0 0 1 4.188 2.422l.32 2.902c.07.633.531 1.152 1.148 1.297C20.902 43.8 22.422 44 24 44c1.578 0 3.098-.2 4.55-.54a1.502 1.502 0 0 0 1.15-1.296l.32-2.902a3 3 0 0 1 4.187-2.422l2.668 1.176a1.499 1.499 0 0 0 1.7-.348 19.926 19.926 0 0 0 4.566-7.871 1.502 1.502 0 0 0-.547-1.645l-2.367-1.734a3.003 3.003 0 0 1 0-4.84l2.367-1.73c.511-.375.73-1.035.547-1.645a19.968 19.968 0 0 0-4.567-7.875 1.504 1.504 0 0 0-1.699-.344l-2.668 1.172a2.984 2.984 0 0 1-2.707-.148 2.986 2.986 0 0 1-1.48-2.27l-.32-2.902a1.502 1.502 0 0 0-1.15-1.297A19.938 19.938 0 0 0 24 4Zm0 3c.973 0 1.91.176 2.848.34l.187 1.723A5.997 5.997 0 0 0 30 13.604a6 6 0 0 0 5.418.297L37 13.207a16.888 16.888 0 0 1 2.86 4.922l-1.407 1.031A6.004 6.004 0 0 0 36 24c0 1.91.91 3.707 2.453 4.836l1.406 1.031A16.857 16.857 0 0 1 37 34.793l-1.582-.7a6.024 6.024 0 0 0-5.418.298 6.01 6.01 0 0 0-2.965 4.543l-.187 1.726c-.938.164-1.875.34-2.848.34-.973 0-1.91-.176-2.848-.34l-.187-1.726A6.01 6.01 0 0 0 18 34.39a6.016 6.016 0 0 0-5.414-.297L11 34.793a16.76 16.76 0 0 1-2.855-4.926l1.406-1.031A5.999 5.999 0 0 0 12 24c0-1.91-.914-3.71-2.45-4.84L8.146 18.13A16.86 16.86 0 0 1 11 13.203l1.586.7c1.746.769 3.762.66 5.414-.294a6.01 6.01 0 0 0 2.965-4.543l.187-1.726C22.09 7.176 23.027 7 24 7Zm0 9c-4.402 0-8 3.598-8 8s3.598 8 8 8 8-3.598 8-8-3.598-8-8-8Zm0 3c2.777 0 5 2.223 5 5s-2.223 5-5 5a4.98 4.98 0 0 1-5-5c0-2.777 2.223-5 5-5Zm0 0"/>
</svg>
