<svg xmlns="http://www.w3.org/2000/svg" width="24" height="24">
  <path style="stroke:none;fill-rule:nonzero;fill:#fff;fill-opacity:1" d="M18 2c-1.645 0-3 1.355-3 3 0 .191.023.379.059.559L7.922 9.723A2.961 2.961 0 0 0 6 9c-1.645 0-3 1.355-3 3s1.355 3 3 3c.73 0 1.398-.277 1.922-.723l7.137 4.16A2.987 2.987 0 0 0 15 19c0 1.645 1.355 3 3 3s3-1.355 3-3-1.355-3-3-3c-.734 0-1.398.281-1.922.723l-7.137-4.164C8.977 12.379 9 12.19 9 12c0-.191-.023-.379-.059-.559l7.137-4.164A2.961 2.961 0 0 0 18 8c1.645 0 3-1.355 3-3s-1.355-3-3-3Zm0 2c.563 0 1 .438 1 1 0 .563-.438 1-1 1-.563 0-1-.438-1-1 0-.563.438-1 1-1ZM6 11c.563 0 1 .438 1 1 0 .563-.438 1-1 1-.563 0-1-.438-1-1 0-.563.438-1 1-1Zm12 7c.563 0 1 .438 1 1 0 .563-.438 1-1 1-.563 0-1-.438-1-1 0-.563.438-1 1-1Zm0 0"/>
</svg>